<svg version="1" xmlns="http://www.w3.org/2000/svg" width="682.667" height="682.667" viewBox="0 0 512.000000 512.000000"><path d="M243.5 34.6c-9.7 2.5-26.9 11.4-56 28.9-3.8 2.3-15.1 8.9-25 14.5-41.4 23.7-78.3 45.5-82.8 48.8-9.6 7-18.8 20.6-21.7 32.2-.8 3.2-1 32.1-.8 99l.3 94.5 2.6 6.6c3.2 8.2 10.3 18.3 16.1 23 4.8 3.9 12.6 8.8 32.8 20.4 7.4 4.3 22.7 13.2 34 19.8 11.3 6.6 24.8 14.4 30 17.2 5.2 2.8 17.2 9.6 26.5 15 29.8 17.2 32.7 18.8 39.9 20.7 4.7 1.2 10.5 1.8 17.6 1.8 13.2 0 19.2-1.8 34.5-10.2 16.9-9.4 20.5-11.8 20.5-13.9 0-1.1-1.8-5.5-4-9.9-5.8-11.5-8-20.5-8-32.5.1-25.5 11.9-47.7 32.5-61 11.3-7.3 28.1-12.5 40.2-12.5 22.2.1 45.9 13.1 59.4 32.6 3.2 4.6 5.8 7.4 7 7.4 2 0 7.7-6.6 10.7-12.5 5.4-10.8 5.3-7.3 5-111.1l-.3-95.9-4.2-8.5c-4.7-9.7-9.8-16.4-16.3-21.3-4.5-3.4-20.1-12.6-66.5-39.5-53.2-30.7-63.3-36.6-73.3-42.5-15.9-9.3-21.3-10.9-36.2-11.3-6.9-.2-13.4-.1-14.5.2zm-86.7 173.2c23.4 7.3 35.7 35.9 27.2 63.4-3.5 11.5-12.3 21.7-22.8 26.6-5.1 2.4-6.9 2.7-16.7 2.7-9.8 0-11.6-.3-16.5-2.6-18.3-8.8-28.1-29.1-25-52.1 1.8-13.8 9-26.4 19-33.3 9.3-6.5 23-8.3 34.8-4.7zm61.8 12.9l6.5 13.8 6.6-13.8 6.6-13.7H259l-10.5 20.9-10.5 21 12.5 25.5 12.4 25.6H241l-8.1-16.8-8.1-16.7-4.4 9.5c-2.4 5.2-5.9 12.7-7.7 16.7l-3.2 7.2-10.7.1c-6 0-10.8-.2-10.8-.4 0-.3 5.4-11.6 11.9-25.3l11.9-24.7-10.4-20.8c-5.7-11.4-10.4-21-10.4-21.3 0-.3 4.7-.5 10.5-.5H212l6.6 13.7zm77.5 0c5 7.6 9.5 14.2 9.9 14.7.5.4 5.2-5.7 10.6-13.8l9.7-14.6H345v93h-19l-.2-30.7-.3-30.8-9.4 14.8-9.4 14.8-9.6-14.8-9.6-14.8-.3 30.8-.2 30.7h-19v-93h19l9.1 13.7zM410 216v9h-33v17h33v18h-33v40h-19v-93h52v9z"/><path d="M137.6 225.5c-5.2 1.8-10 6.7-12.8 12.9-3.3 7.4-3.3 22.8.1 30.3 6.4 14.5 22.1 18.6 33.1 8.7 6.1-5.6 8.4-12.1 8.4-23.9 0-8.3-.4-10.9-2.3-15.2-5.1-11.5-15.8-16.6-26.5-12.8zM363.1 358c-19.4 2.7-38.1 20.3-42.1 39.7-1.8 8.4-.8 23.5 1.9 30.6 5.4 13.7 17.2 25.5 30.9 30.8 7.9 3 22.5 3.7 31 1.5 18.1-4.6 31.9-17.4 37.2-34.5 2.5-7.8 2.7-22.1.5-30.6-4.2-16-18-30.8-33.3-35.5-7.4-2.3-17.9-3.1-26.1-2zm-.1 51v17h-6v-34h6v17zm34-10.8c0 4.8.3 5.9 1.2 5 2.1-2.1 8.6-1.5 11.3 1.2 4.5 4.5 4.5 14.7 0 19.2-2.7 2.7-9.2 3.3-11.3 1.2-.9-.9-1.2-.9-1.2 0 0 .7-1.3 1.2-3 1.2h-3v-34h6v6.2zm-46.9 4.8c2.1 1.2 5.1 6.4 4.2 7.4-1.4 1.4-5.2.5-5.8-1.3-.8-2.5-3.8-3.5-6.3-2.2-4 2.1-3.7 12.5.3 14.3 2.4 1.1 6.5-.4 6.5-2.2 0-.6 1.4-1 3-1h3.1l-1.6 3c-1.9 3.7-4.3 5-9.3 5-5.1 0-8.8-3-10.2-8.1-1.4-5.1.2-11.1 3.7-13.8 2.8-2.3 9.1-2.8 12.4-1.1zm22.9 7.1c0 8.8 1 11.9 4 11.9 3.9 0 5-2.6 5-11.6V402h6v24h-3c-1.7 0-3-.5-3-1.2 0-.9-.3-.9-1.2 0-.7.7-3.1 1.2-5.3 1.2-6.6 0-7.9-2.2-8.3-14.1l-.4-9.9h6.2v8.1z"/><path d="M398.7 407.8c-2.4 2.6-2.3 10.4.1 12.5 2.4 2.2 3.8 2.1 6.2-.3 3.9-3.9 1.5-14-3.3-14-.8 0-2.1.8-3 1.8z"/></svg>